<svg id="Layer_1" data-name="Layer 1" xmlns="http://www.w3.org/2000/svg" viewBox="0 0 416.1 90.05"><defs><style>.cls-1{fill:#c9071d;}.cls-2{fill:#8c6239;}</style></defs><title>Logos-Falcultades</title><path d="M37.11,34.69H27.79v24c0,6.54-2.62,11.53-10.38,11.53-5.07,0-8.09-2.7-8.09-10.14V34.69H0V61C0,72,4.74,77.6,15.78,77.6a14.19,14.19,0,0,0,12-7H28V77h9.16V34.69Z"/><polygon class="cls-1" points="5.41 23.09 31.7 23.09 31.7 27.73 5.41 27.73 5.41 23.09 5.41 23.09"/><path class="cls-1" d="M15.36,3.31a3.31,3.31,0,1,1,3.31,3.31,3.31,3.31,0,0,1-3.31-3.31Z"/><path class="cls-1" d="M0,14.6A5.41,5.41,0,1,1,5.41,20,5.41,5.41,0,0,1,0,14.6Z"/><path class="cls-1" d="M13.14,14.6A5.41,5.41,0,1,1,18.56,20a5.41,5.41,0,0,1-5.41-5.41Z"/><path class="cls-1" d="M26.29,14.6A5.41,5.41,0,1,1,31.7,20a5.41,5.41,0,0,1-5.41-5.41Z"/><path d="M82.94,77.11H73.52l-3.34-7.53a31.35,31.35,0,0,0-3.31-6A7.14,7.14,0,0,0,64,61.07a10.19,10.19,0,0,0-3.6-.54H55.65V77.11H46.17V34.65l17.07,0a15.84,15.84,0,0,1,8.64,2.14A12.88,12.88,0,0,1,76.73,42a13.37,13.37,0,0,1,1.49,5.82A11,11,0,0,1,77,53.28a12,12,0,0,1-2.62,3.23,12.92,12.92,0,0,1-2.72,1.91A12.22,12.22,0,0,1,75,61.25a35.61,35.61,0,0,1,3.63,6.63Zm-14.07-29c0-2-.64-3.72-1.93-4.49s-3.38-.78-6.28-.78h-5V53h5.06c3.12,0,5-.1,6.18-.79A4.75,4.75,0,0,0,68.87,48.07Z"/><path d="M99.37,75.29A40,40,0,0,1,98.72,83a9.34,9.34,0,0,1-2.93,5.06Q93.51,90,89,90a35.51,35.51,0,0,1-4.71-.28V81.06a12.12,12.12,0,0,0,2.85,0,3.66,3.66,0,0,0,1.79-.7,3,3,0,0,0,1-1.67,31.65,31.65,0,0,0,.22-5.06V34.65h9.24Z"/><path d="M116.57,50.8h0c3.4-8.22,14.78-12,27.54-2.6V38.76a32.62,32.62,0,0,0-15.39-4.07A28.81,28.81,0,0,0,120.08,36a21.05,21.05,0,0,0-7.31,4,18.17,18.17,0,0,0-5,6.74A23.31,23.31,0,0,0,106,56.13v0a23.31,23.31,0,0,0,1.78,9.45,18.17,18.17,0,0,0,5,6.74,21.05,21.05,0,0,0,7.31,4,28.81,28.81,0,0,0,8.64,1.28,32.62,32.62,0,0,0,15.39-4.07V64.09c-12.76,9.35-24.14,5.63-27.54-2.6h0a13.85,13.85,0,0,1-1-5.3h0V56.1A15,15,0,0,1,116.57,50.8Z"/><path d="M222.47,40.07H230v1.7h-5.65v4.07h5.46v1.71h-5.46v4.14h5.83v1.7h-7.74Z"/><path d="M231.58,52.78V50.9a8,8,0,0,0,1.5.83,3.51,3.51,0,0,0,1.29.32,1.62,1.62,0,0,0,.94-.27.77.77,0,0,0,.39-.64.86.86,0,0,0-.25-.63,5.87,5.87,0,0,0-1.09-.73,7.76,7.76,0,0,1-2.2-1.6,2.3,2.3,0,0,1-.52-1.45,2,2,0,0,1,.79-1.65,3.11,3.11,0,0,1,2-.64,5.58,5.58,0,0,1,2.64.73v1.72a5.3,5.3,0,0,0-2.53-.94,1.41,1.41,0,0,0-.82.21.66.66,0,0,0-.31.57.82.82,0,0,0,.28.58,4.81,4.81,0,0,0,1,.67l.62.35q2.2,1.24,2.2,2.75a2.19,2.19,0,0,1-.84,1.77,3.32,3.32,0,0,1-2.17.69,5.3,5.3,0,0,1-1.39-.17A9.4,9.4,0,0,1,231.58,52.78Z"/><path d="M246.12,51.35v1.72a7.32,7.32,0,0,1-2.56.49,4.22,4.22,0,0,1-4.52-4.5,4.68,4.68,0,0,1,1.19-3.34,4.11,4.11,0,0,1,3.14-1.27,5.25,5.25,0,0,1,1.22.13,8,8,0,0,1,1.33.48v1.85a4.61,4.61,0,0,0-2.44-.84,2.5,2.5,0,0,0-1.93.83,3,3,0,0,0-.75,2.11,2.84,2.84,0,0,0,.82,2.14,3,3,0,0,0,2.2.79A5.73,5.73,0,0,0,246.12,51.35Z"/><path d="M253.7,53.41V52.28a4.06,4.06,0,0,1-1.27.94,3.3,3.3,0,0,1-1.42.34,3,3,0,0,1-1.53-.42A2.69,2.69,0,0,1,248.42,52a5.65,5.65,0,0,1-.36-2.36v-5h1.74v5a3.45,3.45,0,0,0,.4,1.93,1.6,1.6,0,0,0,1.39.55,2.54,2.54,0,0,0,2.11-1.21V44.62h1.74v8.78Z"/><path d="M265.36,49.17h-6.18a2.86,2.86,0,0,0,.85,2,2.78,2.78,0,0,0,2,.75,5.23,5.23,0,0,0,3.17-1.07v1.7a5.79,5.79,0,0,1-1.59.76,6.63,6.63,0,0,1-1.85.23,4.14,4.14,0,0,1-2.35-.6A4.38,4.38,0,0,1,258,51.32a5,5,0,0,1-.54-2.35,4.67,4.67,0,0,1,1.14-3.26,3.79,3.79,0,0,1,3-1.26,3.48,3.48,0,0,1,2.79,1.22,4.88,4.88,0,0,1,1,3.27Zm-6.14-1h4.42a2.43,2.43,0,0,0-.62-1.6,2,2,0,0,0-1.49-.56,2.14,2.14,0,0,0-1.53.56A2.79,2.79,0,0,0,259.22,48.13Z"/><path d="M267.28,40.07H269V53.41h-1.74Z"/><path d="M277,48.13v3.73q0,.45.31.45a2.11,2.11,0,0,0,1-.47V52.9a5.7,5.7,0,0,1-1,.52,2.07,2.07,0,0,1-.75.14q-1.12,0-1.32-.88a3.78,3.78,0,0,1-2.36.86,2.08,2.08,0,0,1-1.53-.61,2.06,2.06,0,0,1-.61-1.52,2.15,2.15,0,0,1,.6-1.49,4,4,0,0,1,1.69-1l2.22-.76v-.47a1.4,1.4,0,0,0-1.58-1.58A3.81,3.81,0,0,0,271,47.54v-1.9a3.6,3.6,0,0,1,2.91-1.19,3.36,3.36,0,0,1,2.28.75,2.35,2.35,0,0,1,.52.63,2.29,2.29,0,0,1,.29.79A11.68,11.68,0,0,1,277,48.13Zm-1.71,3.54V49.06l-1.16.45a3.94,3.94,0,0,0-1.26.71,1.29,1.29,0,0,0,0,1.78,1.23,1.23,0,0,0,.9.34A2.18,2.18,0,0,0,275.34,51.67Z"/><path d="M282,40h11.14v1.7h-4.65V53.41h-1.92V41.75H282Z"/><path d="M302.16,49.17H296a2.86,2.86,0,0,0,.85,2,2.78,2.78,0,0,0,2,.75A5.23,5.23,0,0,0,302,50.85v1.7a5.79,5.79,0,0,1-1.59.76,6.63,6.63,0,0,1-1.85.23,4.14,4.14,0,0,1-2.35-.6,4.38,4.38,0,0,1-1.44-1.62,5,5,0,0,1-.54-2.35,4.67,4.67,0,0,1,1.14-3.26,3.79,3.79,0,0,1,3-1.26,3.48,3.48,0,0,1,2.79,1.22,4.88,4.88,0,0,1,1,3.27Zm-6.14-1h4.42a2.43,2.43,0,0,0-.62-1.6,2,2,0,0,0-1.49-.56,2.14,2.14,0,0,0-1.53.56A2.79,2.79,0,0,0,296,48.13Zm4.25-8.27-2.16,2.86H297l1.29-2.86Z"/><path d="M310.63,51.35v1.72a7.32,7.32,0,0,1-2.56.49,4.22,4.22,0,0,1-4.52-4.5,4.68,4.68,0,0,1,1.19-3.34,4.11,4.11,0,0,1,3.14-1.27,5.25,5.25,0,0,1,1.22.13,8,8,0,0,1,1.33.48v1.85a4.61,4.61,0,0,0-2.44-.84,2.5,2.5,0,0,0-1.93.83,3,3,0,0,0-.75,2.11,2.84,2.84,0,0,0,.82,2.14,3,3,0,0,0,2.2.79A5.73,5.73,0,0,0,310.63,51.35Z"/><path d="M314.34,44.62v1.12A3.49,3.49,0,0,1,317,44.45a2.91,2.91,0,0,1,1.53.43A2.77,2.77,0,0,1,319.59,46a5.58,5.58,0,0,1,.37,2.34v5h-1.74v-5a3.42,3.42,0,0,0-.41-1.92,1.57,1.57,0,0,0-1.37-.58,2.5,2.5,0,0,0-2.09,1.23v6.27h-1.78V44.62Z"/><path d="M323.28,40.93a1,1,0,0,1,.74.3,1,1,0,0,1,.31.73,1,1,0,0,1-1,1,1,1,0,0,1-.71-.31,1,1,0,0,1-.31-.72,1,1,0,0,1,.31-.71A1,1,0,0,1,323.28,40.93Zm-.86,3.69h1.74v8.78h-1.74Z"/><path d="M333.25,51.35v1.72a7.32,7.32,0,0,1-2.56.49,4.22,4.22,0,0,1-4.52-4.5,4.68,4.68,0,0,1,1.19-3.34,4.11,4.11,0,0,1,3.14-1.27,5.25,5.25,0,0,1,1.22.13,8,8,0,0,1,1.33.48v1.85a4.61,4.61,0,0,0-2.44-.84,2.5,2.5,0,0,0-1.93.83,3,3,0,0,0-.75,2.11,2.84,2.84,0,0,0,.82,2.14,3,3,0,0,0,2.2.79A5.73,5.73,0,0,0,333.25,51.35Z"/><path d="M340.75,48.13v3.73q0,.45.31.45a2.11,2.11,0,0,0,1-.47V52.9a5.7,5.7,0,0,1-1,.52,2.07,2.07,0,0,1-.75.14q-1.12,0-1.32-.88a3.78,3.78,0,0,1-2.36.86,2.08,2.08,0,0,1-1.53-.61,2.06,2.06,0,0,1-.61-1.52,2.15,2.15,0,0,1,.6-1.49,4,4,0,0,1,1.69-1l2.22-.76v-.47a1.4,1.4,0,0,0-1.58-1.58,3.81,3.81,0,0,0-2.77,1.47v-1.9a3.6,3.6,0,0,1,2.91-1.19,3.36,3.36,0,0,1,2.28.75,2.35,2.35,0,0,1,.52.63,2.29,2.29,0,0,1,.29.79A11.68,11.68,0,0,1,340.75,48.13ZM339,51.67V49.06l-1.16.45a3.94,3.94,0,0,0-1.26.71,1.29,1.29,0,0,0,0,1.78,1.23,1.23,0,0,0,.9.34A2.18,2.18,0,0,0,339,51.67Z"/><path d="M352.55,47.82l-1.45-.88a6.6,6.6,0,0,1-1.94-1.64,3.11,3.11,0,0,1-.58-1.86,3.28,3.28,0,0,1,1.09-2.56,4.09,4.09,0,0,1,2.84-1,5.37,5.37,0,0,1,3.06.94V43a4.42,4.42,0,0,0-3.1-1.39,2.57,2.57,0,0,0-1.54.43,1.31,1.31,0,0,0-.6,1.11,1.71,1.71,0,0,0,.44,1.12,5.56,5.56,0,0,0,1.42,1.1l1.46.86a4.27,4.27,0,0,1,2.44,3.71A3.4,3.4,0,0,1,355,52.56a3.93,3.93,0,0,1-2.79,1,5.86,5.86,0,0,1-3.6-1.21V49.92a4.49,4.49,0,0,0,3.58,2,2.25,2.25,0,0,0,1.49-.5,1.56,1.56,0,0,0,.6-1.25Q354.31,48.91,352.55,47.82Z"/><path d="M363.56,53.41V52.28a4.06,4.06,0,0,1-1.27.94,3.3,3.3,0,0,1-1.42.34,3,3,0,0,1-1.53-.42A2.69,2.69,0,0,1,358.28,52a5.65,5.65,0,0,1-.36-2.36v-5h1.74v5a3.45,3.45,0,0,0,.4,1.93,1.6,1.6,0,0,0,1.39.55,2.54,2.54,0,0,0,2.11-1.21V44.62h1.74v8.78Z"/><path d="M367.63,57.88V44.62h3a5.27,5.27,0,0,1,3.64,1.17,4.14,4.14,0,0,1,1.3,3.26,4.48,4.48,0,0,1-1.23,3.25,4.15,4.15,0,0,1-3.12,1.27,5.47,5.47,0,0,1-1.86-.37v4.7Zm3-11.64H369.4v5.4a3.63,3.63,0,0,0,1.68.41,2.58,2.58,0,0,0,2-.85,3.11,3.11,0,0,0,.78-2.19,3.07,3.07,0,0,0-.37-1.52,2.22,2.22,0,0,0-1-1A4.48,4.48,0,0,0,370.63,46.24Z"/><path d="M385,49.17h-6.18a2.86,2.86,0,0,0,.85,2,2.78,2.78,0,0,0,2,.75,5.23,5.23,0,0,0,3.17-1.07v1.7a5.79,5.79,0,0,1-1.59.76,6.63,6.63,0,0,1-1.85.23,4.14,4.14,0,0,1-2.35-.6,4.38,4.38,0,0,1-1.44-1.62,5,5,0,0,1-.54-2.35,4.67,4.67,0,0,1,1.14-3.26,3.79,3.79,0,0,1,3-1.26A3.48,3.48,0,0,1,384,45.67a4.88,4.88,0,0,1,1,3.27Zm-6.14-1h4.42a2.43,2.43,0,0,0-.62-1.6,2,2,0,0,0-1.49-.56,2.14,2.14,0,0,0-1.53.56A2.79,2.79,0,0,0,378.86,48.13Z"/><path d="M388.75,44.62v2l.1-.15q1.26-2,2.52-2a3.11,3.11,0,0,1,2.05,1L392.5,47a2.57,2.57,0,0,0-1.68-.86,1.8,1.8,0,0,0-1.46.8,3,3,0,0,0-.62,1.9v4.59H387V44.62Z"/><path d="M395.52,40.93a1,1,0,0,1,.74.3,1,1,0,0,1,.31.73,1,1,0,0,1-1,1,1,1,0,0,1-.71-.31,1,1,0,0,1-.31-.72,1,1,0,0,1,.31-.71A1,1,0,0,1,395.52,40.93Zm-.86,3.69h1.74v8.78h-1.74Z"/><path d="M403.11,44.6a4.58,4.58,0,0,1,3.33,1.29,4.35,4.35,0,0,1,1.33,3.25,4.13,4.13,0,0,1-1.35,3.16A4.78,4.78,0,0,1,403,53.56a4.58,4.58,0,0,1-3.3-1.27,4.5,4.5,0,0,1,0-6.4A4.67,4.67,0,0,1,403.11,44.6Zm-.1,1.57A2.75,2.75,0,0,0,401,47a2.87,2.87,0,0,0-.8,2.09,2.74,2.74,0,0,0,.82,2.06,2.9,2.9,0,0,0,2.11.8,2.86,2.86,0,0,0,2.1-.81,3,3,0,0,0,0-4.14A3,3,0,0,0,403,46.17Z"/><path d="M411.56,44.62v2l.1-.15q1.26-2,2.52-2a3.11,3.11,0,0,1,2.05,1L415.32,47a2.57,2.57,0,0,0-1.68-.86,1.8,1.8,0,0,0-1.46.8,3,3,0,0,0-.62,1.9v4.59h-1.75V44.62Z"/><path d="M228.1,61.67h1.75V75h-3.71A4.06,4.06,0,0,1,223,73.78a4.62,4.62,0,0,1-1.16-3.3,4.38,4.38,0,0,1,1.22-3.19A4.15,4.15,0,0,1,226.19,66a5.66,5.66,0,0,1,1.91.37Zm0,11.85V68a3.61,3.61,0,0,0-1.64-.41,2.65,2.65,0,0,0-2.07.85,3.28,3.28,0,0,0-.77,2.29,3,3,0,0,0,.67,2.09,2.07,2.07,0,0,0,.85.59,5.7,5.7,0,0,0,1.61.15Z"/><path d="M239.69,70.77h-6.18a2.86,2.86,0,0,0,.85,2,2.78,2.78,0,0,0,2,.75,5.23,5.23,0,0,0,3.17-1.07v1.7a5.79,5.79,0,0,1-1.59.76,6.63,6.63,0,0,1-1.85.23,4.14,4.14,0,0,1-2.35-.6,4.38,4.38,0,0,1-1.44-1.62,5,5,0,0,1-.54-2.35,4.67,4.67,0,0,1,1.14-3.26,3.79,3.79,0,0,1,3-1.26,3.48,3.48,0,0,1,2.79,1.22,4.88,4.88,0,0,1,1,3.27Zm-6.14-1H238a2.43,2.43,0,0,0-.62-1.6,2,2,0,0,0-1.49-.56,2.14,2.14,0,0,0-1.53.56A2.79,2.79,0,0,0,233.55,69.73Z"/><path d="M247.26,61.67h1.91V75h-1.91Z"/><path d="M253.63,66.23v1.12a3.49,3.49,0,0,1,2.64-1.29,2.91,2.91,0,0,1,1.53.43,2.77,2.77,0,0,1,1.07,1.16,5.58,5.58,0,0,1,.37,2.34v5H257.5V70a3.42,3.42,0,0,0-.41-1.92,1.57,1.57,0,0,0-1.37-.58,2.5,2.5,0,0,0-2.09,1.23V75h-1.78V66.23Z"/><path d="M261.22,69.26a2.69,2.69,0,0,1,1-2.22,4.39,4.39,0,0,1,2.8-.82h3.62v1.36h-1.78a3.64,3.64,0,0,1,.72,1,2.31,2.31,0,0,1,.2,1,2.63,2.63,0,0,1-.39,1.35,2.76,2.76,0,0,1-1,1,6.14,6.14,0,0,1-2,.56q-1,.14-1,.68a.57.57,0,0,0,.37.5,5.82,5.82,0,0,0,1.33.41,14.39,14.39,0,0,1,2.08.55,2.68,2.68,0,0,1,.84.57,2.15,2.15,0,0,1,.63,1.58,2.3,2.3,0,0,1-1.11,2,5.27,5.27,0,0,1-3,.74,5.33,5.33,0,0,1-3-.75,2.31,2.31,0,0,1-1.12-2q0-1.79,2.21-2.3-.88-.56-.88-1.12a1,1,0,0,1,.38-.76,2.33,2.33,0,0,1,1-.51A2.88,2.88,0,0,1,261.22,69.26Zm2.85,6.16a2.54,2.54,0,0,0-1.44.37,1.11,1.11,0,0,0-.56,1q0,1.36,2.44,1.36a3.86,3.86,0,0,0,1.79-.34,1.05,1.05,0,0,0,.63-1q0-.61-.8-1A4.79,4.79,0,0,0,264.07,75.42Zm.41-7.69a1.67,1.67,0,0,0-1.2.48,1.53,1.53,0,0,0-.5,1.15,1.45,1.45,0,0,0,.49,1.12,1.76,1.76,0,0,0,1.23.44,1.74,1.74,0,0,0,1.23-.45,1.47,1.47,0,0,0,.49-1.13,1.5,1.5,0,0,0-.5-1.15A1.76,1.76,0,0,0,264.48,67.73Z"/><path d="M277.5,70.77h-6.18a2.86,2.86,0,0,0,.85,2,2.78,2.78,0,0,0,2,.75,5.23,5.23,0,0,0,3.17-1.07v1.7a5.79,5.79,0,0,1-1.59.76,6.63,6.63,0,0,1-1.85.23,4.14,4.14,0,0,1-2.35-.6,4.38,4.38,0,0,1-1.44-1.62,5,5,0,0,1-.54-2.35,4.67,4.67,0,0,1,1.14-3.26,3.79,3.79,0,0,1,3-1.26,3.48,3.48,0,0,1,2.79,1.22,4.88,4.88,0,0,1,1,3.27Zm-6.14-1h4.42a2.43,2.43,0,0,0-.62-1.6,2,2,0,0,0-1.49-.56,2.14,2.14,0,0,0-1.53.56A2.79,2.79,0,0,0,271.36,69.73Z"/><path d="M281.12,66.23v1.12a3.49,3.49,0,0,1,2.64-1.29,2.91,2.91,0,0,1,1.53.43,2.77,2.77,0,0,1,1.07,1.16,5.58,5.58,0,0,1,.37,2.34v5H285V70a3.42,3.42,0,0,0-.41-1.92,1.57,1.57,0,0,0-1.37-.58,2.5,2.5,0,0,0-2.09,1.23V75h-1.78V66.23Z"/><path d="M290.05,62.53a1,1,0,0,1,.74.3,1,1,0,0,1,.31.73,1,1,0,0,1-1,1,1,1,0,0,1-.71-.31,1,1,0,0,1-.31-.72,1,1,0,0,1,.31-.71A1,1,0,0,1,290.05,62.53Zm-.86,3.69h1.74V75h-1.74Z"/><path d="M300.93,70.77h-6.18a2.86,2.86,0,0,0,.85,2,2.78,2.78,0,0,0,2,.75,5.23,5.23,0,0,0,3.17-1.07v1.7a5.79,5.79,0,0,1-1.59.76,6.63,6.63,0,0,1-1.85.23,4.14,4.14,0,0,1-2.35-.6,4.38,4.38,0,0,1-1.44-1.62,5,5,0,0,1-.54-2.35,4.67,4.67,0,0,1,1.14-3.26,3.79,3.79,0,0,1,3-1.26,3.48,3.48,0,0,1,2.79,1.22,4.88,4.88,0,0,1,1,3.27Zm-6.14-1h4.42a2.43,2.43,0,0,0-.62-1.6,2,2,0,0,0-1.49-.56,2.14,2.14,0,0,0-1.53.56A2.79,2.79,0,0,0,294.79,69.73Z"/><path d="M304.67,66.23v2l.1-.15q1.26-2,2.52-2a3.11,3.11,0,0,1,2.05,1l-.92,1.53a2.57,2.57,0,0,0-1.68-.86,1.8,1.8,0,0,0-1.46.8,3,3,0,0,0-.62,1.9V75h-1.75V66.23Z"/><path d="M310.59,66.23h1.74V75h-1.74Zm3.7-4.76-2.16,2.86h-1.07l1.29-2.86Z"/><path d="M320.36,69.73v3.73q0,.45.31.45a2.11,2.11,0,0,0,1-.47V74.5a5.7,5.7,0,0,1-1,.52,2.07,2.07,0,0,1-.75.14q-1.12,0-1.32-.88a3.78,3.78,0,0,1-2.36.86,2.08,2.08,0,0,1-1.53-.61,2.06,2.06,0,0,1-.61-1.52,2.15,2.15,0,0,1,.6-1.49,4,4,0,0,1,1.69-1l2.22-.76v-.47a1.4,1.4,0,0,0-1.58-1.58,3.81,3.81,0,0,0-2.77,1.47v-1.9a3.6,3.6,0,0,1,2.91-1.19,3.36,3.36,0,0,1,2.28.75,2.35,2.35,0,0,1,.52.63,2.29,2.29,0,0,1,.29.79A11.68,11.68,0,0,1,320.36,69.73Zm-1.71,3.54V70.67l-1.16.45a3.94,3.94,0,0,0-1.26.71,1.29,1.29,0,0,0,0,1.78,1.23,1.23,0,0,0,.9.34A2.18,2.18,0,0,0,318.65,73.27Z"/><path d="M328.87,61.67h1.91V75h-1.91Z"/><path d="M335.24,66.23v1.12a3.49,3.49,0,0,1,2.64-1.29,2.91,2.91,0,0,1,1.53.43,2.77,2.77,0,0,1,1.07,1.16,5.58,5.58,0,0,1,.37,2.34v5h-1.74V70a3.42,3.42,0,0,0-.41-1.92,1.57,1.57,0,0,0-1.37-.58,2.5,2.5,0,0,0-2.09,1.23V75h-1.78V66.23Z"/><path d="M343.48,66.23V65.7a4.72,4.72,0,0,1,.9-3.16,2.77,2.77,0,0,1,2.16-1,5.87,5.87,0,0,1,1.29.17v1.7a2.35,2.35,0,0,0-.8-.15,1.65,1.65,0,0,0-1.42.54,3.45,3.45,0,0,0-.4,1.94v.52h1.57v1.57h-1.57V75h-1.74V67.79h-1.26V66.23Z"/><path d="M352.18,66.21a4.58,4.58,0,0,1,3.33,1.29,4.35,4.35,0,0,1,1.33,3.25,4.13,4.13,0,0,1-1.35,3.16,4.78,4.78,0,0,1-3.39,1.25,4.58,4.58,0,0,1-3.3-1.27,4.5,4.5,0,0,1,0-6.4A4.67,4.67,0,0,1,352.18,66.21Zm-.1,1.57a2.75,2.75,0,0,0-2.05.82,2.87,2.87,0,0,0-.8,2.09,2.74,2.74,0,0,0,.82,2.06,2.9,2.9,0,0,0,2.11.8,2.86,2.86,0,0,0,2.1-.81,3,3,0,0,0,0-4.14A3,3,0,0,0,352.08,67.77Z"/><path d="M360.63,66.23v2l.1-.15q1.26-2,2.52-2a3.11,3.11,0,0,1,2.05,1l-.92,1.53a2.57,2.57,0,0,0-1.68-.86,1.8,1.8,0,0,0-1.46.8,3,3,0,0,0-.62,1.9V75h-1.75V66.23Z"/><path d="M373.71,68.63V75H372V70.12a3.84,3.84,0,0,0-.39-2,1.53,1.53,0,0,0-1.37-.58,2,2,0,0,0-1,.25,4.38,4.38,0,0,0-1,.88V75h-1.74V66.23h1.74v1.16a3.78,3.78,0,0,1,2.6-1.33,2.86,2.86,0,0,1,2.59,1.58,3.92,3.92,0,0,1,2.91-1.6,2.68,2.68,0,0,1,2.1.94,4.22,4.22,0,0,1,.83,2.85V75h-1.74v-5.2a2.71,2.71,0,0,0-.45-1.68,1.53,1.53,0,0,0-1.29-.58A2.67,2.67,0,0,0,373.71,68.63Z"/><path d="M387.1,69.73v3.73q0,.45.31.45a2.11,2.11,0,0,0,1-.47V74.5a5.7,5.7,0,0,1-1,.52,2.07,2.07,0,0,1-.75.14q-1.12,0-1.32-.88a3.78,3.78,0,0,1-2.36.86,2.08,2.08,0,0,1-1.53-.61,2.06,2.06,0,0,1-.61-1.52,2.15,2.15,0,0,1,.6-1.49,4,4,0,0,1,1.69-1l2.22-.76v-.47a1.4,1.4,0,0,0-1.58-1.58A3.81,3.81,0,0,0,381,69.15v-1.9A3.6,3.6,0,0,1,384,66.05a3.36,3.36,0,0,1,2.28.75,2.35,2.35,0,0,1,.52.63,2.29,2.29,0,0,1,.29.79A11.68,11.68,0,0,1,387.1,69.73Zm-1.71,3.54V70.67l-1.16.45a3.94,3.94,0,0,0-1.26.71,1.29,1.29,0,0,0,0,1.78,1.23,1.23,0,0,0,.9.34A2.18,2.18,0,0,0,385.39,73.27Zm1.27-11.81-2.16,2.86h-1.07l1.29-2.86Z"/><path d="M388.7,67.62,392,64.41v1.81h2.78v1.57H392v4.3q0,1.51,1.25,1.51a3.88,3.88,0,0,0,2-.62V74.6a4.39,4.39,0,0,1-2.19.56,2.9,2.9,0,0,1-2-.7,2,2,0,0,1-.41-.47,2.5,2.5,0,0,1-.27-.69,7.72,7.72,0,0,1-.11-1.62v-3.9H388.7Z"/><path d="M397.34,62.53a1,1,0,0,1,.74.3,1,1,0,0,1,.31.73,1,1,0,0,1-1,1,1,1,0,0,1-.71-.31,1,1,0,0,1-.31-.72,1,1,0,0,1,.31-.71A1,1,0,0,1,397.34,62.53Zm-.86,3.69h1.74V75h-1.74Z"/><path d="M407.32,73v1.72a7.32,7.32,0,0,1-2.56.49,4.22,4.22,0,0,1-4.52-4.5,4.68,4.68,0,0,1,1.19-3.34,4.11,4.11,0,0,1,3.14-1.27,5.25,5.25,0,0,1,1.22.13,8,8,0,0,1,1.33.48v1.85a4.61,4.61,0,0,0-2.44-.84,2.5,2.5,0,0,0-1.93.83,3,3,0,0,0-.75,2.11,2.84,2.84,0,0,0,.82,2.14,3,3,0,0,0,2.2.79A5.73,5.73,0,0,0,407.32,73Z"/><path d="M414.81,69.73v3.73q0,.45.31.45a2.11,2.11,0,0,0,1-.47V74.5a5.7,5.7,0,0,1-1,.52,2.07,2.07,0,0,1-.75.14q-1.12,0-1.32-.88a3.78,3.78,0,0,1-2.36.86,2.08,2.08,0,0,1-1.53-.61,2.06,2.06,0,0,1-.61-1.52,2.15,2.15,0,0,1,.6-1.49,4,4,0,0,1,1.69-1l2.22-.76v-.47a1.4,1.4,0,0,0-1.58-1.58,3.81,3.81,0,0,0-2.77,1.47v-1.9a3.6,3.6,0,0,1,2.91-1.19,3.36,3.36,0,0,1,2.28.75,2.35,2.35,0,0,1,.52.63,2.29,2.29,0,0,1,.29.79A11.68,11.68,0,0,1,414.81,69.73Zm-1.71,3.54V70.67l-1.16.45a3.94,3.94,0,0,0-1.26.71,1.29,1.29,0,0,0,0,1.78,1.23,1.23,0,0,0,.9.34A2.18,2.18,0,0,0,413.1,73.27Z"/><path class="cls-2" d="M200,34.73a4.69,4.69,0,0,1,.63,2.41,4.73,4.73,0,0,1-1.46,3.47,4.78,4.78,0,0,1-3.51,1.46,4.6,4.6,0,0,1-3.37-1.48,4.75,4.75,0,0,1-1.46-3.44,4.52,4.52,0,0,1,.69-2.41H165.12V77.79h26.41V47h8.3v30.8h8.35V34.73Z"/></svg>